<svg xmlns="http://www.w3.org/2000/svg" viewBox="0 0 677.05 405.33"><defs><style>.cls-1,.cls-13,.cls-14,.cls-15{fill:#211551;}.cls-2{fill:#635b85;}.cls-11,.cls-12,.cls-3,.cls-5,.cls-9{fill:none;}.cls-3{stroke:#372c62;stroke-width:0.89px;}.cls-11,.cls-12,.cls-13,.cls-14,.cls-15,.cls-3,.cls-5,.cls-6,.cls-7,.cls-8,.cls-9{stroke-miterlimit:10;}.cls-4{fill:#110b29;}.cls-5{stroke:#ff2e69;}.cls-11,.cls-5,.cls-6,.cls-7,.cls-8,.cls-9{stroke-width:0.68px;}.cls-6{fill:#b2e9f6;}.cls-6,.cls-7,.cls-8,.cls-9{stroke:#19bce5;}.cls-7{fill:#4ccbeb;}.cls-8{fill:#7fdaf0;}.cls-10{fill:#7a7397;}.cls-11,.cls-12{stroke:#00b5e2;}.cls-12{stroke-width:0.59px;}.cls-13{stroke:#fedd00;}.cls-14{stroke:#ff1759;}.cls-15{stroke:#47d7ac;}.cls-16{fill:#fedd00;}.cls-17{fill:#ff1759;}.cls-18{fill:#47d7ac;}</style></defs><g id="Layer_2" data-name="Layer 2"><g id="Layer_1-2" data-name="Layer 1"><polygon class="cls-1" points="344.76 0 0 196.29 332.65 391.7 676.46 195.12 344.76 0"/><polygon class="cls-2" points="677.05 194.32 677.05 208.07 333.19 405.01 333.19 391.38 677.05 194.32"/><line class="cls-3" x1="14.41" y1="188.26" x2="350.45" y2="381.26"/><line class="cls-3" x1="31.99" y1="178.34" x2="367.97" y2="371.24"/><line class="cls-3" x1="49.57" y1="168.42" x2="385.5" y2="361.23"/><line class="cls-3" x1="67.16" y1="158.49" x2="403.02" y2="351.22"/><line class="cls-3" x1="84.74" y1="148.57" x2="420.54" y2="341.2"/><line class="cls-3" x1="102.32" y1="138.65" x2="438.06" y2="331.19"/><line class="cls-3" x1="119.9" y1="128.73" x2="455.59" y2="321.17"/><line class="cls-3" x1="137.48" y1="118.81" x2="473.11" y2="311.16"/><line class="cls-3" x1="155.06" y1="108.88" x2="490.63" y2="301.14"/><line class="cls-3" x1="172.64" y1="98.96" x2="508.16" y2="291.13"/><line class="cls-3" x1="190.22" y1="89.04" x2="525.68" y2="281.12"/><line class="cls-3" x1="207.8" y1="79.12" x2="543.2" y2="271.1"/><line class="cls-3" x1="225.39" y1="69.2" x2="560.73" y2="261.09"/><line class="cls-3" x1="242.97" y1="59.27" x2="578.25" y2="251.07"/><line class="cls-3" x1="260.55" y1="49.35" x2="595.77" y2="241.06"/><line class="cls-3" x1="278.13" y1="39.43" x2="613.3" y2="231.05"/><line class="cls-3" x1="295.71" y1="29.51" x2="630.82" y2="221.03"/><line class="cls-3" x1="313.29" y1="19.59" x2="648.34" y2="211.02"/><line class="cls-3" x1="330.87" y1="9.66" x2="665.86" y2="201"/><line class="cls-3" x1="663.12" y1="186.97" x2="321.22" y2="384.2"/><line class="cls-3" x1="647.95" y1="178.07" x2="305.96" y2="375.24"/><line class="cls-3" x1="632.78" y1="169.18" x2="290.7" y2="366.28"/><line class="cls-3" x1="617.61" y1="160.28" x2="275.44" y2="357.32"/><line class="cls-3" x1="602.44" y1="151.39" x2="260.18" y2="348.36"/><line class="cls-3" x1="587.27" y1="142.49" x2="244.92" y2="339.4"/><line class="cls-3" x1="572.1" y1="133.6" x2="229.65" y2="330.44"/><line class="cls-3" x1="556.93" y1="124.7" x2="214.39" y2="321.48"/><line class="cls-3" x1="541.76" y1="115.81" x2="199.13" y2="312.52"/><line class="cls-3" x1="526.59" y1="106.91" x2="183.87" y2="303.56"/><line class="cls-3" x1="511.42" y1="98.02" x2="168.61" y2="294.6"/><line class="cls-3" x1="496.25" y1="89.13" x2="153.35" y2="285.64"/><line class="cls-3" x1="481.08" y1="80.23" x2="138.09" y2="276.68"/><line class="cls-3" x1="465.91" y1="71.34" x2="122.83" y2="267.72"/><line class="cls-3" x1="450.74" y1="62.44" x2="107.57" y2="258.76"/><line class="cls-3" x1="435.57" y1="53.55" x2="92.31" y2="249.79"/><line class="cls-3" x1="420.4" y1="44.65" x2="77.05" y2="240.83"/><line class="cls-3" x1="405.23" y1="35.76" x2="61.79" y2="231.87"/><line class="cls-3" x1="390.06" y1="26.86" x2="46.53" y2="222.91"/><line class="cls-3" x1="374.89" y1="17.97" x2="31.27" y2="213.95"/><line class="cls-3" x1="358.54" y1="9.07" x2="16.01" y2="204.99"/><polygon class="cls-4" points="332.65 391.7 0.07 196.17 0.07 210.6 332.65 405.33 333.19 405.01 333.19 391.38 332.65 391.7"/><polygon class="cls-4" points="184.29 264.15 108.61 222.36 161.13 192.43 232.85 235.35 184.29 264.15"/><polygon class="cls-4" points="292.14 203.16 216.47 161.37 268.99 131.44 340.71 174.36 292.14 203.16"/><polygon class="cls-4" points="394.36 144.43 318.69 102.64 371.2 72.71 442.92 115.63 394.36 144.43"/><polygon class="cls-5" points="394.83 143.22 443.09 171.85 490.28 143.75 443.09 115.11 394.83 143.22"/><polygon class="cls-6" points="490.28 93.74 443.09 121.84 443.09 171.85 490.28 143.75 490.28 93.74"/><polygon class="cls-7" points="394.83 143.52 443.09 172.15 490.28 144.05 443.13 115.5 394.83 143.52"/><polygon class="cls-8" points="394.83 93.21 394.83 143.47 443.09 172.1 443.09 121.84 394.83 93.21"/><polygon class="cls-7" points="394.83 93.28 443.09 121.92 490.28 93.81 442.56 66.24 394.83 93.28"/><polygon class="cls-5" points="293.19 201.94 341.44 230.58 388.63 202.47 341.44 173.84 293.19 201.94"/><polygon class="cls-6" points="388.63 59.44 341.44 87.54 341.44 230.58 388.63 202.47 388.63 59.44"/><polygon class="cls-7" points="293.19 202.25 341.44 230.88 388.63 202.78 341.48 174.23 293.19 202.25"/><polygon class="cls-8" points="293.19 59.31 293.19 202.19 341.44 230.83 341.44 87.94 293.19 59.31"/><polygon class="cls-7" points="293.19 58.99 341.44 87.62 388.63 59.52 340.91 31.94 293.19 58.99"/><polygon class="cls-5" points="184.76 262.93 233.02 291.57 280.21 263.46 233.02 234.83 184.76 262.93"/><polygon class="cls-6" points="280.21 180.65 233.02 208.76 233.02 291.57 280.21 263.46 280.21 180.65"/><polygon class="cls-7" points="184.76 263.24 233.02 291.87 280.21 263.77 233.06 235.22 184.76 263.24"/><polygon class="cls-8" points="184.76 180.65 184.76 263.18 233.02 291.82 233.02 209.29 184.76 180.65"/><polygon class="cls-7" points="184.76 180.33 233.02 208.96 280.21 180.86 232.49 153.29 184.76 180.33"/><polygon class="cls-9" points="292.79 202.24 341.05 230.87 388.24 202.77 341.05 174.13 292.79 202.24"/><polygon class="cls-9" points="292.79 52.71 341.05 81.34 388.24 53.24 340.52 25.67 292.79 52.71"/><polygon class="cls-9" points="292.79 52.71 292.79 202.24 341.05 230.87 341.05 81.34 292.79 52.71"/><polygon class="cls-9" points="388.24 53.24 341.05 81.34 341.05 230.87 388.24 202.77 388.24 53.24"/><polygon class="cls-9" points="184.75 263.26 233 291.9 280.2 263.79 233 235.16 184.75 263.26"/><polygon class="cls-9" points="184.75 170.02 233 198.65 280.2 170.55 232.47 142.98 184.75 170.02"/><polygon class="cls-9" points="184.75 170.02 184.75 263.26 233 291.9 233 198.65 184.75 170.02"/><polygon class="cls-9" points="280.2 170.55 233 198.65 233 291.9 280.2 263.79 280.2 170.55"/><polygon class="cls-9" points="394.83 143.22 443.09 171.85 490.28 143.75 443.09 115.11 394.83 143.22"/><polygon class="cls-9" points="394.83 86.75 443.09 115.38 490.28 87.28 442.56 59.7 394.83 86.75"/><polygon class="cls-9" points="394.83 86.75 394.83 143.22 443.09 171.85 443.09 115.38 394.83 86.75"/><polygon class="cls-9" points="490.28 87.28 443.09 115.38 443.09 171.85 490.28 143.75 490.28 87.28"/><polygon class="cls-10" points="292.71 294.29 286.86 290.88 289.34 289.46 275.29 287.27 279.3 295.21 281.86 293.74 287.88 297.12 292.71 294.29"/><polygon class="cls-10" points="349.74 332.86 355.59 336.27 353.11 337.69 367.16 339.88 363.14 331.95 360.59 333.41 354.57 330.03 349.74 332.86"/><line class="cls-11" x1="300.24" y1="301.61" x2="341.18" y2="325.3"/><ellipse class="cls-12" cx="343.88" cy="326.53" rx="1.73" ry="3.36" transform="translate(8.91 662.2) rotate(-88.58)"/><ellipse class="cls-12" cx="297.89" cy="300.31" rx="1.73" ry="3.36" transform="translate(-9.72 590.66) rotate(-88.58)"/><ellipse class="cls-13" cx="319.25" cy="313.84" rx="4.49" ry="8.75" transform="translate(-2.42 625.2) rotate(-88.58)"/><polygon class="cls-10" points="396.7 233.81 390.85 230.4 393.33 228.98 379.28 226.79 383.29 234.72 385.85 233.26 391.87 236.64 396.7 233.81"/><polygon class="cls-10" points="453.72 272.38 459.58 275.79 457.1 277.21 471.15 279.4 467.13 271.46 464.58 272.93 458.56 269.55 453.72 272.38"/><line class="cls-11" x1="404.23" y1="241.13" x2="445.17" y2="264.82"/><ellipse class="cls-12" cx="447.87" cy="266.05" rx="1.73" ry="3.36" transform="translate(170.79 707.17) rotate(-88.58)"/><ellipse class="cls-12" cx="401.88" cy="239.83" rx="1.73" ry="3.36" transform="translate(152.15 635.64) rotate(-88.58)"/><ellipse class="cls-14" cx="414.28" cy="246.65" rx="4.49" ry="8.75" transform="translate(157.43 654.68) rotate(-88.58)"/><polygon class="cls-10" points="502.81 173.59 496.96 170.18 499.44 168.76 485.39 166.57 489.4 174.51 491.96 173.04 497.98 176.42 502.81 173.59"/><polygon class="cls-10" points="559.83 212.16 565.69 215.57 563.21 216.99 577.26 219.18 573.24 211.25 570.69 212.71 564.67 209.33 559.83 212.16"/><line class="cls-11" x1="510.34" y1="180.91" x2="551.28" y2="204.6"/><ellipse class="cls-12" cx="553.98" cy="205.83" rx="1.73" ry="3.36" transform="translate(334.46 754.53) rotate(-88.58)"/><ellipse class="cls-12" cx="507.99" cy="179.61" rx="1.73" ry="3.36" transform="translate(315.83 682.99) rotate(-88.58)"/><ellipse class="cls-15" cx="542.21" cy="198.98" rx="4.49" ry="8.75" transform="translate(329.84 736.09) rotate(-88.58)"/><path class="cls-16" d="M318.4,337.22a3.13,3.13,0,0,0-2.49-.47,3.07,3.07,0,0,0-3.24-4.86,3.1,3.1,0,0,0,.41-1.71,3.06,3.06,0,0,0-1-2.13,3.11,3.11,0,0,0-2.77-.71l8.61-9.56a3.08,3.08,0,0,0-4.57-4.12l-10.7,11.88-.81-.51a1.67,1.67,0,0,0-2.14.3l-4.92,5.46A3.1,3.1,0,0,0,294,333l.52,9.93-7.44,8.25a.28.28,0,0,0,0,.39L297.5,361a.27.27,0,0,0,.38,0l7.51-8.33c.26-.28,4.91-1.25,5.33-1.72l8.2-9.09a3.09,3.09,0,0,0-.52-4.59Z"/><path class="cls-17" d="M415.81,270.31a3.1,3.1,0,0,0-2.49-.48,3.07,3.07,0,0,0-3.24-4.86,3.07,3.07,0,0,0-3.37-4.54l8.62-9.56a3.08,3.08,0,0,0-2.45-5.14,3.06,3.06,0,0,0-2.13,1l-10.7,11.88-.81-.51a1.66,1.66,0,0,0-2.13.3l-4.93,5.46a3.16,3.16,0,0,0-.79,2.22l.52,9.93-7.44,8.26a.27.27,0,0,0,0,.38l10.42,9.39a.23.23,0,0,0,.19.07.22.22,0,0,0,.19-.09l7.51-8.32c.26-.29,4.91-1.26,5.33-1.73l8.2-9.09a3.08,3.08,0,0,0-.52-4.58Z"/><path class="cls-18" d="M545.41,226.26a3.06,3.06,0,0,0-2.49-.47,3.08,3.08,0,0,0-3.24-4.87,3.09,3.09,0,0,0,.41-1.7,3,3,0,0,0-1-2.13,3.08,3.08,0,0,0-2.77-.71l8.62-9.56a3.08,3.08,0,1,0-4.58-4.12l-10.7,11.87-.81-.51a1.69,1.69,0,0,0-2.14.3l-4.92,5.46A3.18,3.18,0,0,0,521,222l.52,9.94-7.44,8.25a.28.28,0,0,0,0,.39L524.51,250a.32.32,0,0,0,.19.07.29.29,0,0,0,.19-.09l7.51-8.33c.26-.29,4.91-1.26,5.33-1.73l8.2-9.09a3.08,3.08,0,0,0-.52-4.58Z"/></g></g></svg>