<svg width="1310" height="782" viewBox="0 0 1310 782" xmlns="http://www.w3.org/2000/svg">
	<defs>
		<linearGradient x1="-.042%" y1="50.001%" x2="100.043%" y2="50.001%" id="grid-form_svg__b">
			<stop stop-color="#F4F4F4" stop-opacity="0" offset="0%"/>
			<stop stop-color="#AFABC0" offset="49%"/>
			<stop stop-color="#F4F4F4" offset="100%"/>
		</linearGradient>
		<linearGradient x1="-.031%" y1="49.999%" x2="100.031%" y2="49.999%" id="grid-form_svg__l">
			<stop stop-color="#F4F4F4" stop-opacity="0" offset="0%"/>
			<stop stop-color="#AFABC0" offset="49%"/>
			<stop stop-color="#F4F4F4" offset="100%"/>
		</linearGradient>
		<linearGradient x1="-.042%" y1="50%" x2="100.042%" y2="50%" id="grid-form_svg__c">
			<stop stop-color="#F4F4F4" stop-opacity="0" offset="0%"/>
			<stop stop-color="#AFABC0" offset="49%"/>
			<stop stop-color="#F4F4F4" offset="100%"/>
		</linearGradient>
		<linearGradient x1="-.042%" y1="49.999%" x2="100.042%" y2="49.999%" id="grid-form_svg__d">
			<stop stop-color="#F4F4F4" stop-opacity="0" offset="0%"/>
			<stop stop-color="#AFABC0" offset="49%"/>
			<stop stop-color="#F4F4F4" offset="100%"/>
		</linearGradient>
		<linearGradient x1="-.042%" y1="49.999%" x2="100.042%" y2="49.999%" id="grid-form_svg__e">
			<stop stop-color="#F4F4F4" stop-opacity="0" offset="0%"/>
			<stop stop-color="#AFABC0" offset="49%"/>
			<stop stop-color="#F4F4F4" offset="100%"/>
		</linearGradient>
		<linearGradient x1="-.043%" y1="49.999%" x2="100.042%" y2="49.999%" id="grid-form_svg__f">
			<stop stop-color="#F4F4F4" stop-opacity="0" offset="0%"/>
			<stop stop-color="#AFABC0" offset="49%"/>
			<stop stop-color="#F4F4F4" offset="100%"/>
		</linearGradient>
		<linearGradient x1="-.029%" y1="50%" x2="100.03%" y2="50%" id="grid-form_svg__g">
			<stop stop-color="#F4F4F4" stop-opacity="0" offset="0%"/>
			<stop stop-color="#AFABC0" offset="49%"/>
			<stop stop-color="#F4F4F4" offset="100%"/>
		</linearGradient>
		<linearGradient x1="-.031%" y1="50%" x2="100.031%" y2="50%" id="grid-form_svg__h">
			<stop stop-color="#F4F4F4" stop-opacity="0" offset="0%"/>
			<stop stop-color="#AFABC0" offset="49%"/>
			<stop stop-color="#F4F4F4" offset="100%"/>
		</linearGradient>
		<linearGradient x1="-.031%" y1="49.999%" x2="100.031%" y2="49.999%" id="grid-form_svg__i">
			<stop stop-color="#F4F4F4" stop-opacity="0" offset="0%"/>
			<stop stop-color="#AFABC0" offset="49%"/>
			<stop stop-color="#F4F4F4" offset="100%"/>
		</linearGradient>
		<linearGradient x1="-.031%" y1="49.999%" x2="100.031%" y2="49.999%" id="grid-form_svg__j">
			<stop stop-color="#F4F4F4" stop-opacity="0" offset="0%"/>
			<stop stop-color="#AFABC0" offset="49%"/>
			<stop stop-color="#F4F4F4" offset="100%"/>
		</linearGradient>
		<linearGradient x1="-.031%" y1="49.999%" x2="100.031%" y2="49.999%" id="grid-form_svg__k">
			<stop stop-color="#F4F4F4" stop-opacity="0" offset="0%"/>
			<stop stop-color="#AFABC0" offset="49%"/>
			<stop stop-color="#F4F4F4" offset="100%"/>
		</linearGradient>
		<linearGradient x1="-.042%" y1="50.001%" x2="100.042%" y2="50.001%" id="grid-form_svg__a">
			<stop stop-color="#F4F4F4" stop-opacity="0" offset="0%"/>
			<stop stop-color="#AFABC0" offset="49%"/>
			<stop stop-color="#F4F4F4" offset="100%"/>
		</linearGradient>
		<linearGradient x1="-.032%" y1="49.999%" x2="100.032%" y2="49.999%" id="grid-form_svg__m">
			<stop stop-color="#F4F4F4" stop-opacity="0" offset="0%"/>
			<stop stop-color="#AFABC0" offset="49%"/>
			<stop stop-color="#F4F4F4" offset="100%"/>
		</linearGradient>
		<linearGradient x1="-.032%" y1="50.001%" x2="100.032%" y2="50.001%" id="grid-form_svg__n">
			<stop stop-color="#F4F4F4" stop-opacity="0" offset="0%"/>
			<stop stop-color="#AFABC0" offset="49%"/>
			<stop stop-color="#F4F4F4" offset="100%"/>
		</linearGradient>
		<linearGradient x1="-.032%" y1="50%" x2="100.032%" y2="50%" id="grid-form_svg__o">
			<stop stop-color="#F4F4F4" stop-opacity="0" offset="0%"/>
			<stop stop-color="#AFABC0" offset="49%"/>
			<stop stop-color="#F4F4F4" offset="100%"/>
		</linearGradient>
		<linearGradient x1="-.032%" y1="50%" x2="100.032%" y2="50%" id="grid-form_svg__p">
			<stop stop-color="#F4F4F4" stop-opacity="0" offset="0%"/>
			<stop stop-color="#AFABC0" offset="49%"/>
			<stop stop-color="#F4F4F4" offset="100%"/>
		</linearGradient>
		<linearGradient x1="-.033%" y1="50%" x2="100.033%" y2="50%" id="grid-form_svg__q">
			<stop stop-color="#F4F4F4" stop-opacity="0" offset="0%"/>
			<stop stop-color="#AFABC0" offset="49%"/>
			<stop stop-color="#F4F4F4" offset="100%"/>
		</linearGradient>
		<linearGradient x1="-.033%" y1="50%" x2="100.033%" y2="50%" id="grid-form_svg__r">
			<stop stop-color="#F4F4F4" stop-opacity="0" offset="0%"/>
			<stop stop-color="#AFABC0" offset="49%"/>
			<stop stop-color="#F4F4F4" offset="100%"/>
		</linearGradient>
		<linearGradient x1="-.033%" y1="50.001%" x2="100.033%" y2="50.001%" id="grid-form_svg__s">
			<stop stop-color="#F4F4F4" stop-opacity="0" offset="0%"/>
			<stop stop-color="#AFABC0" offset="49%"/>
			<stop stop-color="#F4F4F4" offset="100%"/>
		</linearGradient>
		<linearGradient x1="-.033%" y1="50.001%" x2="100.033%" y2="50.001%" id="grid-form_svg__t">
			<stop stop-color="#F4F4F4" stop-opacity="0" offset="0%"/>
			<stop stop-color="#AFABC0" offset="49%"/>
			<stop stop-color="#F4F4F4" offset="100%"/>
		</linearGradient>
		<linearGradient x1="-.033%" y1="50.001%" x2="100.033%" y2="50.001%" id="grid-form_svg__u">
			<stop stop-color="#F4F4F4" stop-opacity="0" offset="0%"/>
			<stop stop-color="#AFABC0" offset="49%"/>
			<stop stop-color="#F4F4F4" offset="100%"/>
		</linearGradient>
		<linearGradient x1="-.034%" y1="50%" x2="100.034%" y2="50%" id="grid-form_svg__v">
			<stop stop-color="#F4F4F4" stop-opacity="0" offset="0%"/>
			<stop stop-color="#AFABC0" offset="49%"/>
			<stop stop-color="#F4F4F4" offset="100%"/>
		</linearGradient>
	</defs>
	<g fill="none" fill-rule="evenodd">
		<path stroke="url(#grid-form_svg__a)" d="M0 432.16l601.13 347.89M35.37 411.8L636.5 759.69M70.73 391.44l601.13 347.89M106.1 371.08l601.13 347.89" transform="translate(.75 1)"/>
		<path stroke="url(#grid-form_svg__b)" d="M141.46 350.72l601.13 347.89" transform="translate(.75 1)"/>
		<path stroke="url(#grid-form_svg__a)" d="M176.83 330.36l601.13 347.89" transform="translate(.75 1)"/>
		<path stroke="url(#grid-form_svg__c)" d="M212.19 310.01l601.14 347.88" transform="translate(.75 1)"/>
		<path stroke="url(#grid-form_svg__d)" d="M247.56 289.65l601.13 347.89" transform="translate(.75 1)"/>
		<path stroke="url(#grid-form_svg__e)" d="M282.92 269.29l601.14 347.89" transform="translate(.75 1)"/>
		<path stroke="url(#grid-form_svg__d)" d="M318.29 248.93l601.13 347.89" transform="translate(.75 1)"/>
		<path stroke="url(#grid-form_svg__e)" d="M353.65 228.57l601.14 347.89" transform="translate(.75 1)"/>
		<path stroke="url(#grid-form_svg__d)" d="M389.02 208.21L990.15 556.1" transform="translate(.75 1)"/>
		<path stroke="url(#grid-form_svg__f)" d="M424.39 187.85l601.13 347.89" transform="translate(.75 1)"/>
		<path stroke="url(#grid-form_svg__a)" d="M459.75 167.49l601.13 347.89M495.12 147.13l601.13 347.89M530.48 126.77l601.13 347.89M565.85 106.41l601.13 347.89" transform="translate(.75 1)"/>
		<path stroke="url(#grid-form_svg__b)" d="M601.21 86.05l601.13 347.89" transform="translate(.75 1)"/>
		<path stroke="url(#grid-form_svg__a)" d="M636.58 65.69l601.13 347.89" transform="translate(.75 1)"/>
		<path stroke="url(#grid-form_svg__c)" d="M671.94 45.34l601.14 347.88" transform="translate(.75 1)"/>
		<path stroke="url(#grid-form_svg__d)" d="M707.31 24.98l601.13 347.89" transform="translate(.75 1)"/>
		<path stroke="url(#grid-form_svg__g)" d="M1.55 472.58L823.9 0" transform="translate(.75 1)"/>
		<path stroke="url(#grid-form_svg__h)" d="M36.79 493.1L853.74 23.42" transform="translate(.75 1)"/>
		<path stroke="url(#grid-form_svg__i)" d="M72.03 513.62L883.59 46.85" transform="translate(.75 1)"/>
		<path stroke="url(#grid-form_svg__j)" d="M107.26 534.14L913.44 70.27" transform="translate(.75 1)"/>
		<path stroke="url(#grid-form_svg__k)" d="M142.5 554.66L943.28 93.69" transform="translate(.75 1)"/>
		<path stroke="url(#grid-form_svg__l)" d="M177.73 575.18l795.4-458.07" transform="translate(.75 1)"/>
		<path stroke="url(#grid-form_svg__m)" d="M212.97 595.7l790.01-455.17" transform="translate(.75 1)"/>
		<path stroke="url(#grid-form_svg__n)" d="M248.21 616.22l784.62-452.27" transform="translate(.75 1)"/>
		<path stroke="url(#grid-form_svg__o)" d="M283.44 636.74l779.23-449.36" transform="translate(.75 1)"/>
		<path stroke="url(#grid-form_svg__p)" d="M318.68 657.26l773.84-446.46" transform="translate(.75 1)"/>
		<path stroke="url(#grid-form_svg__q)" d="M353.91 677.78l768.46-443.56" transform="translate(.75 1)"/>
		<path stroke="url(#grid-form_svg__r)" d="M389.15 698.3l763.06-440.66" transform="translate(.75 1)"/>
		<path stroke="url(#grid-form_svg__s)" d="M424.39 718.81l757.67-437.75" transform="translate(.75 1)"/>
		<path stroke="url(#grid-form_svg__t)" d="M459.62 739.33l752.29-434.85" transform="translate(.75 1)"/>
		<path stroke="url(#grid-form_svg__u)" d="M494.86 759.85l746.89-431.95" transform="translate(.75 1)"/>
		<path stroke="url(#grid-form_svg__v)" d="M530.09 780.37l741.51-429.04" transform="translate(.75 1)"/>
	</g>
</svg>
